<svg width="61" height="59" viewBox="0 0 61 59" fill="none" xmlns="http://www.w3.org/2000/svg">
<ellipse cx="30.5" cy="29.5" rx="30.5" ry="29.5" fill="black"/>
<path d="M16.264 18.176C16.264 18.8 16.252 19.532 16.228 20.372C16.204 21.188 16.18 21.812 16.156 22.244C16.084 23.468 16.048 24.692 16.048 25.916C16.048 26.828 16.084 27.776 16.156 28.76C16.9 27.68 17.704 26.888 18.568 26.384C19.432 25.88 20.476 25.628 21.7 25.628C22.588 25.628 23.416 26.024 24.184 26.816C24.952 27.608 25.444 28.532 25.66 29.588C25.732 30.524 25.768 31.664 25.768 33.008C25.768 33.872 25.816 35 25.912 36.392C25.96 36.92 26.092 37.412 26.308 37.868C26.548 38.324 26.884 38.552 27.316 38.552C27.532 38.552 27.7 38.54 27.82 38.516C27.964 38.492 28.096 38.48 28.216 38.48C28.552 38.48 28.78 38.564 28.9 38.732C29.044 38.9 29.116 39.14 29.116 39.452C29.116 40.028 28.828 40.46 28.252 40.748C27.676 41.036 27.148 41.18 26.668 41.18C24.94 41.18 23.752 40.46 23.104 39.02C22.744 38.204 22.516 37.148 22.42 35.852C22.324 34.532 22.276 32.996 22.276 31.244C22.276 29.516 21.688 28.652 20.512 28.652C19.864 28.652 19.204 29 18.532 29.696C17.884 30.368 17.344 31.268 16.912 32.396C16.48 33.5 16.264 34.652 16.264 35.852L16.3 39.596C16.3 40.124 16.096 40.52 15.688 40.784C15.28 41.024 14.896 41.144 14.536 41.144C14.008 41.144 13.528 40.988 13.096 40.676C12.664 40.34 12.448 39.968 12.448 39.56C12.616 37.76 12.7 34.748 12.7 30.524C12.7 29.756 12.64 26.912 12.52 21.992L12.412 18.68C12.412 18.152 12.652 17.696 13.132 17.312C13.612 16.904 14.152 16.7 14.752 16.7C15.28 16.7 15.664 16.82 15.904 17.06C16.144 17.3 16.264 17.672 16.264 18.176ZM30.9911 33.368C30.9911 32.456 31.1591 31.544 31.4951 30.632C31.8311 29.696 32.2751 28.844 32.8271 28.076C33.3791 27.308 34.2551 26.684 35.4551 26.204C36.6551 25.7 37.7231 25.448 38.6591 25.448C39.6191 25.448 40.5911 25.58 41.5751 25.844C42.5831 26.108 43.2791 26.516 43.6631 27.068C44.5511 28.316 44.9951 29.54 44.9951 30.74C44.9951 31.388 44.8511 31.94 44.5631 32.396C44.2991 32.852 43.9151 33.344 43.4111 33.872C43.0031 34.304 42.3551 34.592 41.4671 34.736C40.6031 34.88 39.7391 34.952 38.8751 34.952C38.3231 34.952 37.6511 34.904 36.8591 34.808C36.0671 34.688 35.2991 34.544 34.5551 34.376C34.6031 34.856 34.7231 35.324 34.9151 35.78C35.1071 36.236 35.3351 36.584 35.5991 36.824C36.0791 37.28 36.5711 37.568 37.0751 37.688C37.6031 37.808 38.2751 37.868 39.0911 37.868C39.9551 37.868 40.7591 37.724 41.5031 37.436C42.1031 37.22 42.5951 37.112 42.9791 37.112C43.4351 37.112 43.7831 37.256 44.0231 37.544C44.2631 37.808 44.3831 38.156 44.3831 38.588C44.3831 39.188 44.0351 39.68 43.3391 40.064C42.6431 40.448 41.8391 40.736 40.9271 40.928C40.0391 41.096 39.3191 41.18 38.7671 41.18C37.6391 41.18 36.5471 40.976 35.4911 40.568C34.4351 40.16 33.5591 39.584 32.8631 38.84C32.2871 38.168 31.8311 37.364 31.4951 36.428C31.1591 35.468 30.9911 34.448 30.9911 33.368ZM38.8391 28.508C38.3111 28.508 37.7831 28.616 37.2551 28.832C36.7271 29.024 36.2951 29.3 35.9591 29.66C35.5271 30.116 35.2271 30.488 35.0591 30.776C34.9151 31.04 34.8191 31.412 34.7711 31.892C35.3711 32.084 36.6191 32.18 38.5151 32.18C39.5471 32.18 40.3391 32.024 40.8911 31.712C41.4671 31.4 41.7551 30.992 41.7551 30.488C41.7551 29.984 41.4431 29.528 40.8191 29.12C40.1951 28.712 39.5351 28.508 38.8391 28.508ZM53.4393 39.02C53.4393 39.62 53.1993 40.184 52.7193 40.712C52.2393 41.216 51.7113 41.468 51.1353 41.468C50.4633 41.468 49.8513 41.288 49.2993 40.928C48.7473 40.544 48.4713 40.064 48.4713 39.488C48.4713 38.576 48.6393 37.904 48.9753 37.472C49.3353 37.04 49.8633 36.824 50.5593 36.824C51.3753 36.824 52.0593 37.028 52.6113 37.436C53.1633 37.82 53.4393 38.348 53.4393 39.02Z" fill="white"/>
</svg>
